<svg width="35" height="35" viewBox="0 0 35 35" fill="none" xmlns="http://www.w3.org/2000/svg">
<g clip-path="url(#clip0_92_457)">
<path d="M12.2395 5.00937C13.5957 5.8625 15.5207 7.19688 18.1129 8.84844C20.3277 10.2439 22.457 11.7705 24.4895 13.4203C25.3754 14.3391 26.0754 16.7016 27.7051 18.6922C28.7526 20.0021 29.9247 21.2072 31.2051 22.2906C29.9684 22.0513 28.7836 21.5959 27.7051 20.9453C26.3226 20.1434 25.0902 19.1071 24.0629 17.8828C23.6145 17.1739 23.1213 16.4944 22.5863 15.8484C21.2957 14.6234 16.7785 12.7859 14.0223 11.9109C11.266 11.0359 10.6316 11.5719 7.89726 11.0578C6.61226 10.9208 5.36311 10.5501 4.21133 9.96406L2.18789 3.71875L12.2395 7.42656V5.00937Z" fill="#E24329"/>
<path d="M2.18711 11.5391L6.02617 18.2328H9.08867L17.4996 16.5375V15.4437L13.5949 13.125L10.7293 12.6656L2.18711 11.5391ZM20.9121 18.2984L21.2512 21.6781L23.034 22.2031L24.9043 21.5797L20.9121 18.2984Z" fill="#FC6D26"/>
<path d="M31.2047 22.9688C31.3874 23.3058 31.4921 23.6796 31.5109 24.0625C31.5109 24.5547 32.8125 24.8282 32.8125 26.3703C32.7596 27.0267 32.5452 27.6598 32.1883 28.2132C31.8315 28.7667 31.3433 29.2232 30.7672 29.5422L28.0656 31.2813C28.349 30.6926 28.477 30.0412 28.4375 29.3891C28.4432 29.0873 28.3656 28.7898 28.2132 28.5293C28.0607 28.2688 27.8394 28.0553 27.5734 27.9125C26.8406 27.3328 20.1687 26.1735 18.1781 26.4578C16.7557 26.7094 15.4583 27.4293 14.4922 28.5031L5.46875 21.875L7.79844 19.7531H9.32969L11.4516 18.736H17.5875L20.1687 24.1281C23.6104 23.9604 25.6776 23.8365 26.3703 23.7563C27.0703 23.6688 28.6672 23.4391 31.2047 22.9688Z" fill="#FCA326"/>
</g>
<defs>
<clipPath id="clip0_92_457">
<rect width="35" height="35" fill="white" transform="matrix(-1 0 0 1 35 0)"/>
</clipPath>
</defs>
</svg>
